<svg width="130" height="130" viewBox="0 0 130 130" fill="none" xmlns="http://www.w3.org/2000/svg">
<path d="M117.305 11.1719H105.202V7.61719C105.202 3.41707 101.785 0 97.5845 0C93.3844 0 89.9674 3.41707 89.9674 7.61719V11.1719H47.3111V7.61719C47.3111 3.41707 43.894 0 39.6939 0C35.4938 0 32.0767 3.41707 32.0767 7.61719V11.2658C31.8609 11.2062 31.6347 11.1719 31.3998 11.1719H21.2832C14.283 11.1719 8.58787 16.867 8.58787 23.8672V67.1158C8.58787 68.5181 9.72486 69.6549 11.1269 69.6549C12.529 69.6549 13.666 68.5181 13.666 67.1158V37.3242H105.202C106.604 37.3242 107.741 36.1875 107.741 34.7852C107.741 33.3828 106.604 32.2461 105.202 32.2461H13.666V23.8672C13.666 19.6671 17.0831 16.25 21.2832 16.25H31.3998C31.6347 16.25 31.8609 16.2155 32.0767 16.1561V19.4238C32.0767 23.6239 35.4938 27.041 39.6939 27.041C43.894 27.041 47.3111 23.6239 47.3111 19.4238V16.25H89.9674V19.4238C89.9674 23.6239 93.3844 27.041 97.5845 27.041C101.785 27.041 105.202 23.6239 105.202 19.4238V16.25H117.305C121.505 16.25 124.922 19.6671 124.922 23.8672V120.35C124.922 122.871 122.871 124.922 120.35 124.922C117.829 124.922 115.778 122.871 115.778 120.35V113.782C115.778 112.379 114.641 111.243 113.239 111.243H83.7045C82.3024 111.243 81.1655 112.379 81.1655 113.782C81.1655 115.184 82.3024 116.321 83.7045 116.321H110.7V120.35C110.7 122.003 111.119 123.56 111.854 124.922H9.64844C7.12842 124.922 5.07812 122.872 5.07812 120.352V116.321H61.9087C63.3108 116.321 64.4478 115.184 64.4478 113.782C64.4478 112.379 63.3108 111.243 61.9087 111.243H36.5394C40.9762 107.422 43.7935 101.77 43.7935 95.4688C43.7935 83.9884 34.4536 74.6484 22.9732 74.6484C11.4928 74.6484 2.15287 83.9884 2.15287 95.4688C2.15287 101.77 4.97021 107.422 9.40697 111.243H2.53906C1.13699 111.243 0 112.379 0 113.782V120.352C0 125.672 4.32834 130 9.64844 130H120.35C125.671 130 130 125.671 130 120.35V23.8672C130 16.867 124.305 11.1719 117.305 11.1719ZM42.233 19.4238C42.233 20.8239 41.094 21.9629 39.6939 21.9629C38.2939 21.9629 37.1549 20.8239 37.1549 19.4238V7.61719C37.1549 6.21715 38.2939 5.07812 39.6939 5.07812C41.094 5.07812 42.233 6.21715 42.233 7.61719V19.4238ZM100.124 19.4238C100.124 20.8239 98.9846 21.9629 97.5845 21.9629C96.1845 21.9629 95.0455 20.8239 95.0455 19.4238V7.61719C95.0455 6.21715 96.1845 5.07812 97.5845 5.07812C98.9846 5.07812 100.124 6.21715 100.124 7.61719V19.4238ZM7.231 95.4688C7.231 86.7885 14.2929 79.7266 22.9732 79.7266C31.6535 79.7266 38.7154 86.7885 38.7154 95.4688C38.7154 104.149 31.6535 111.211 22.9732 111.211C14.2929 111.211 7.231 104.149 7.231 95.4688Z" fill="#F8F8F8"/>
<path d="M118.907 32.99C118.435 32.5178 117.78 32.2461 117.112 32.2461C116.444 32.2461 115.789 32.5178 115.317 32.99C114.844 33.4623 114.573 34.1174 114.573 34.7852C114.573 35.4529 114.844 36.108 115.317 36.5803C115.789 37.0525 116.444 37.3242 117.112 37.3242C117.78 37.3242 118.435 37.0525 118.907 36.5803C119.379 36.108 119.651 35.4529 119.651 34.7852C119.651 34.1174 119.379 33.4623 118.907 32.99Z" fill="#F8F8F8"/>
<path d="M75.8288 111.985C75.3568 111.513 74.7017 111.244 74.0339 111.244C73.3662 111.244 72.7111 111.513 72.2388 111.985C71.7666 112.46 71.4949 113.113 71.4949 113.78C71.4949 114.451 71.7663 115.103 72.2388 115.578C72.7111 116.05 73.3662 116.32 74.0339 116.32C74.7017 116.32 75.3568 116.05 75.8288 115.578C76.3011 115.103 76.573 114.448 76.573 113.78C76.573 113.113 76.3013 112.46 75.8288 111.985Z" fill="#F8F8F8"/>
<path d="M57.4451 77.1875C52.125 77.1875 47.7966 81.5158 47.7966 86.8359C47.7966 92.156 52.125 96.4844 57.4451 96.4844C62.7652 96.4844 67.0935 92.156 67.0935 86.8359C67.0935 81.5158 62.7652 77.1875 57.4451 77.1875ZM57.4451 91.4062C54.925 91.4062 52.8748 89.356 52.8748 86.8359C52.8748 84.3159 54.925 82.2656 57.4451 82.2656C59.9651 82.2656 62.0154 84.3159 62.0154 86.8359C62.0154 89.356 59.9651 91.4062 57.4451 91.4062Z" fill="#F8F8F8"/>
<path d="M81.1428 77.1875C75.8227 77.1875 71.4944 81.5158 71.4944 86.8359C71.4944 92.156 75.8227 96.4844 81.1428 96.4844C86.4629 96.4844 90.7913 92.156 90.7913 86.8359C90.7913 81.5158 86.4629 77.1875 81.1428 77.1875ZM81.1428 91.4062C78.6228 91.4062 76.5725 89.356 76.5725 86.8359C76.5725 84.3159 78.6228 82.2656 81.1428 82.2656C83.6628 82.2656 85.7131 84.3159 85.7131 86.8359C85.7131 89.356 83.6628 91.4062 81.1428 91.4062Z" fill="#F8F8F8"/>
<path d="M104.841 77.1875C99.5207 77.1875 95.1924 81.5158 95.1924 86.8359C95.1924 92.156 99.5207 96.4844 104.841 96.4844C110.161 96.4844 114.489 92.156 114.489 86.8359C114.489 81.5158 110.161 77.1875 104.841 77.1875ZM104.841 91.4062C102.321 91.4062 100.271 89.356 100.271 86.8359C100.271 84.3159 102.321 82.2656 104.841 82.2656C107.361 82.2656 109.411 84.3159 109.411 86.8359C109.411 89.356 107.361 91.4062 104.841 91.4062Z" fill="#F8F8F8"/>
<path d="M33.7471 50.7812C28.427 50.7812 24.0986 55.1096 24.0986 60.4297C24.0986 65.7498 28.427 70.0781 33.7471 70.0781C39.0672 70.0781 43.3955 65.7498 43.3955 60.4297C43.3955 55.1096 39.0672 50.7812 33.7471 50.7812ZM33.7471 65C31.2271 65 29.1768 62.9497 29.1768 60.4297C29.1768 57.9097 31.2271 55.8594 33.7471 55.8594C36.2671 55.8594 38.3174 57.9097 38.3174 60.4297C38.3174 62.9497 36.2671 65 33.7471 65Z" fill="#F8F8F8"/>
<path d="M81.1428 50.7812C75.8227 50.7812 71.4944 55.1096 71.4944 60.4297C71.4944 65.7498 75.8227 70.0781 81.1428 70.0781C86.4629 70.0781 90.7913 65.7498 90.7913 60.4297C90.7913 55.1096 86.4629 50.7812 81.1428 50.7812ZM81.1428 65C78.6228 65 76.5725 62.9497 76.5725 60.4297C76.5725 57.9097 78.6228 55.8594 81.1428 55.8594C83.6628 55.8594 85.7131 57.9097 85.7131 60.4297C85.7131 62.9497 83.6628 65 81.1428 65Z" fill="#F8F8F8"/>
<path d="M104.841 50.7812C99.5207 50.7812 95.1924 55.1096 95.1924 60.4297C95.1924 65.7498 99.5207 70.0781 104.841 70.0781C110.161 70.0781 114.489 65.7498 114.489 60.4297C114.489 55.1096 110.161 50.7812 104.841 50.7812ZM104.841 65C102.321 65 100.271 62.9497 100.271 60.4297C100.271 57.9097 102.321 55.8594 104.841 55.8594C107.361 55.8594 109.411 57.9097 109.411 60.4297C109.411 62.9497 107.361 65 104.841 65Z" fill="#F8F8F8"/>
<path d="M57.4451 50.7812C52.125 50.7812 47.7966 55.1096 47.7966 60.4297C47.7966 65.7498 52.125 70.0781 57.4451 70.0781C62.7652 70.0781 67.0935 65.7498 67.0935 60.4297C67.0935 55.1096 62.7652 50.7812 57.4451 50.7812ZM57.4451 65C54.925 65 52.8748 62.9497 52.8748 60.4297C52.8748 57.9097 54.925 55.8594 57.4451 55.8594C59.9651 55.8594 62.0154 57.9097 62.0154 60.4297C62.0154 62.9497 59.9651 65 57.4451 65Z" fill="#F8F8F8"/>
<path d="M32.0186 89.2808C31.0268 88.2893 29.4196 88.2893 28.4276 89.2808L20.1589 97.5498L17.3332 94.724C16.3414 93.7325 14.7342 93.7325 13.7422 94.724C12.7507 95.7155 12.7507 97.3233 13.7422 98.315L18.3635 102.936C18.8398 103.412 19.4855 103.68 20.1589 103.68C20.8322 103.68 21.4779 103.412 21.9543 102.936L32.0186 92.8715C33.0101 91.88 33.0101 90.2723 32.0186 89.2808Z" fill="#F8F8F8"/>
</svg>
