<svg width="100" height="132" viewBox="0 0 100 132" fill="none" xmlns="http://www.w3.org/2000/svg">
<path d="M63.3828 109.725C59.201 109.725 55.7993 113.149 55.7993 117.359C55.7993 121.568 59.201 124.992 63.3828 124.992C67.5645 124.992 70.9662 121.568 70.9662 117.359C70.9662 113.149 67.5623 109.725 63.3828 109.725ZM63.3828 120.63C61.5909 120.63 60.1327 119.162 60.1327 117.359C60.1327 115.555 61.5909 114.087 63.3828 114.087C65.1746 114.087 66.6328 115.555 66.6328 117.359C66.6328 119.162 65.1746 120.63 63.3828 120.63Z" fill="#F8F8F8"/>
<path d="M73.1329 81.3727C77.9126 81.3727 81.7997 77.46 81.7997 72.6488C81.7997 67.8375 77.9126 63.9249 73.1329 63.9249C68.3531 63.9249 64.4661 67.8375 64.4661 72.6488C64.4661 77.46 68.351 81.3727 73.1329 81.3727ZM73.1329 68.2868C75.5228 68.2868 77.4663 70.2432 77.4663 72.6488C77.4663 75.0544 75.5228 77.0107 73.1329 77.0107C70.743 77.0107 68.7995 75.0544 68.7995 72.6488C68.7995 70.2432 70.743 68.2868 73.1329 68.2868Z" fill="#F8F8F8"/>
<path d="M21.1318 26.8483C21.6865 26.8483 22.2412 26.6346 22.6637 26.2093L26.9971 21.8473C27.8443 20.9946 27.8443 19.6162 26.9971 18.7634C26.1499 17.9106 24.7806 17.9106 23.9334 18.7634L19.6 23.1254C18.7528 23.9781 18.7528 25.3565 19.6 26.2093C20.0225 26.6346 20.5772 26.8483 21.1318 26.8483Z" fill="#F8F8F8"/>
<path d="M99.1332 65.5563C99.1332 63.637 98.3901 61.8333 97.0424 60.4768L95.8355 59.262C97.8917 57.4299 99.1311 54.7801 99.1311 51.9295C99.1311 46.5185 94.7565 42.1151 89.3809 42.1151C88.9866 42.1151 88.5966 42.1544 88.2109 42.2024C88.2586 41.812 88.2976 41.4238 88.2976 41.0246C88.2976 35.6136 83.923 31.2102 78.5474 31.2102C78.1531 31.2102 77.7631 31.2495 77.3774 31.2975C77.425 30.9071 77.4641 30.5189 77.4641 30.1198C77.4641 24.7088 73.0895 20.3054 67.7139 20.3054C67.3195 20.3054 66.9295 20.3446 66.5439 20.3926C66.5915 20.0022 66.6305 19.614 66.6305 19.2149C66.6305 13.8039 62.256 9.40049 56.8804 9.40049C54.0463 9.40049 51.416 10.6502 49.5959 12.7177L47.8756 10.9861L39.7223 2.77904C36.938 -0.0235146 32.4096 -0.0235146 29.6298 2.77904L2.95332 29.6312C0.173438 32.4338 0.173438 36.9898 2.95332 39.7924L11.1066 47.9994L21.7451 58.708C18.8071 60.4004 16.7985 63.5519 16.7985 67.1964C16.7985 70.6052 18.5384 73.6106 21.1688 75.3707C21.301 75.5473 21.4548 75.7218 21.6606 75.8985L44.9657 99.2676V103.185H40.6323V131.537H79.6329H96.9665V103.185H92.6331V96.5763C96.778 93.0409 99.1332 87.9571 99.1332 82.4632C99.1332 78.6683 97.9567 74.9824 95.8052 71.8811L97.0424 70.6358C98.3901 69.2792 99.1332 67.4755 99.1332 65.5563ZM94.7998 51.9295C94.7998 53.6045 94.0328 55.1552 92.7696 56.1759L85.1623 48.5185C86.1764 47.247 87.7191 46.4749 89.3809 46.4749C92.3688 46.4771 94.7998 48.922 94.7998 51.9295ZM83.9663 41.0246C83.9663 42.6996 83.1993 44.2503 81.9361 45.271L74.3288 37.6136C75.3428 36.3421 76.8855 35.57 78.5474 35.57C81.5353 35.5722 83.9663 38.0171 83.9663 41.0246ZM73.1328 30.1198C73.1328 31.7947 72.3658 33.3454 71.1026 34.3661L63.4953 26.7087C64.5093 25.4372 66.052 24.6651 67.7139 24.6651C70.7018 24.6673 73.1328 27.1122 73.1328 30.1198ZM56.8825 13.7624C59.8704 13.7624 62.2993 16.2073 62.2993 19.2149C62.2993 20.8899 61.5323 22.4405 60.2691 23.4612L52.6618 15.8038C53.6758 14.5345 55.2185 13.7624 56.8825 13.7624ZM6.01703 36.7107C4.92502 35.6093 4.92502 33.8187 6.01703 32.7173L32.6935 5.86512C32.9643 5.5925 33.2807 5.38749 33.6165 5.25009C33.7682 5.18684 33.9393 5.18902 34.0997 5.15412C34.4853 5.07125 34.8667 5.07125 35.2524 5.15412C35.4127 5.18902 35.5839 5.18684 35.7355 5.25009C36.0714 5.38749 36.3855 5.5925 36.6585 5.86512L41.7481 10.9882L11.1066 41.8316L6.01703 36.7107ZM44.8118 14.0721L47.3642 16.6413L58.1977 27.5462L59.4393 28.7959L69.0312 38.4511L70.2728 39.7008L79.8648 49.356L81.1063 50.6057L91.9398 61.5106L93.9765 63.5607C95.0707 64.6621 95.0707 66.4505 93.9765 67.5519L93.0296 68.5071L67.3022 94.4062C66.2124 95.5054 64.4292 95.5098 63.335 94.4062L46.0555 77.0108H48.2136C53.5892 77.0108 57.9637 72.6074 57.9637 67.1964C57.9637 61.7854 53.5892 57.382 48.2136 57.382H26.553L14.1682 44.9155L44.8118 14.0721ZM25.3787 61.8791L26.2779 61.7766C26.3667 61.7635 26.4555 61.7439 26.5465 61.7439H48.2136C51.2014 61.7439 53.6303 64.1888 53.6303 67.1964C53.6303 70.2039 51.2014 72.6488 48.2136 72.6488H41.7221H35.5947H26.5465C23.5587 72.6488 21.1298 70.2039 21.1298 67.1964C21.1319 64.5945 22.9541 62.42 25.3787 61.8791ZM44.9657 127.173V107.544H63.2223C69.8806 107.544 75.2995 112.999 75.2995 119.701V127.173H44.9657ZM92.6331 127.173H79.6329V119.701C79.6329 114.89 77.5659 110.567 74.2942 107.544H92.6331V127.173ZM92.6873 75.0217C94.061 77.2485 94.7998 79.8242 94.7998 82.4632C94.7998 86.9451 92.7458 91.0693 89.1621 93.7846L88.2997 94.4389V103.182H63.2202H49.2969V97.2546L48.5321 96.6025C48.4346 96.5174 48.3306 96.4389 48.1421 96.2971L28.9082 77.0086H39.9259L60.2691 97.4879C61.6623 98.8881 63.4888 99.5882 65.3154 99.5882C67.1441 99.5882 68.9727 98.8881 70.3638 97.4879L92.6873 75.0217Z" fill="#F8F8F8"/>
</svg>
