<svg width="31" height="33" viewBox="0 0 31 33" fill="none" xmlns="http://www.w3.org/2000/svg">
<path d="M17.9393 17.7535L21.3047 17.9771C21.512 17.6063 21.7077 17.2199 21.8801 16.8158C22.0526 16.4137 22.194 16.0056 22.3199 15.5956L19.8535 13.2709C19.9368 12.6059 19.9484 11.9428 19.8884 11.2896L22.4168 9.04342C22.192 8.20576 21.8743 7.39749 21.4713 6.63243L18.1039 6.756C17.7068 6.23616 17.2495 5.76138 16.738 5.33765L16.9569 1.93014C16.5907 1.71824 16.2071 1.52208 15.8099 1.34753C15.4127 1.17489 15.0097 1.02971 14.6048 0.904165L12.3108 3.40539C11.654 3.32102 10.9991 3.30929 10.3539 3.37398L8.12971 0.812012C7.30241 1.04156 6.50413 1.36327 5.74851 1.77132L5.87056 5.17495C5.3572 5.57708 4.88829 6.04 4.46979 6.55793L1.10437 6.33628C0.895092 6.70903 0.701358 7.0935 0.52896 7.49761C0.358451 7.89974 0.215071 8.30779 0.0910759 8.71782L2.5614 11.0425C2.47807 11.7075 2.46649 12.3706 2.53037 13.0238L0 15.27C0.226714 16.1056 0.544444 16.9158 0.947458 17.6829L4.30904 17.5573C4.7062 18.0772 5.16542 18.5519 5.67688 18.9757L5.45602 22.3832C5.82417 22.5931 6.20389 22.7912 6.603 22.9658C7.00017 23.1404 7.40318 23.2836 7.80815 23.4111L10.1041 20.9139C10.7609 20.9982 11.4158 21.01 12.0609 20.9453L14.2794 23.5093C15.1067 23.2817 15.9049 22.96 16.6606 22.5519L16.5385 19.1425C17.0519 18.7364 17.5208 18.2714 17.9393 17.7535ZM8.90276 17.5613C5.95395 16.2744 4.59574 12.8119 5.86672 9.82613C7.13769 6.84235 10.5574 5.46523 13.5062 6.75211C16.4532 8.03899 17.8114 11.5014 16.5423 14.4872C15.2714 17.473 11.8516 18.8462 8.90276 17.5613Z" fill="#FAFAFA"/>
<path d="M11.2046 15.1003C12.8097 15.1003 14.1108 13.7827 14.1108 12.1573C14.1108 10.532 12.8097 9.21436 11.2046 9.21436C9.59951 9.21436 8.29834 10.532 8.29834 12.1573C8.29834 13.7827 9.59951 15.1003 11.2046 15.1003Z" fill="#FAFAFA"/>
<path d="M30.9593 26.0893L30.9999 25.334L30.9593 24.5768L29.1051 23.9078L28.303 23.6214L28.6672 22.8406L29.51 21.0475C29.2 20.6552 28.8435 20.2923 28.4541 19.9744L26.6793 20.8318L25.9121 21.2006L25.6292 20.3884L24.9705 18.5109L24.2187 18.4678L23.4689 18.5089L22.8101 20.3864L22.5273 21.1986L21.7562 20.8298L19.9853 19.9764C19.5959 20.2903 19.2394 20.6532 18.9255 21.0456L19.7702 22.8426L20.1364 23.6215L19.3343 23.9098L17.4801 24.5769L17.4375 25.3341L17.4782 26.0894L19.3324 26.7564L20.1345 27.0448L19.7702 27.8236L18.9275 29.6207C19.2374 30.0131 19.5939 30.3721 19.9834 30.6898L21.7581 29.8365L22.5273 29.4676L22.8121 30.2798L23.4709 32.1573L24.2188 32.2004L24.9686 32.1593L25.6273 30.2818L25.9102 29.4696L26.6813 29.8384L28.4521 30.6918C28.8416 30.3779 29.198 30.0169 29.5119 29.6226L28.6653 27.8256L28.301 27.0487L29.1031 26.7623L30.9593 26.0893ZM24.2188 26.8054C23.4166 26.8054 22.7656 26.1462 22.7656 25.334C22.7656 24.5219 23.4166 23.8627 24.2188 23.8627C25.0209 23.8627 25.6719 24.5219 25.6719 25.334C25.6719 26.1462 25.0209 26.8054 24.2188 26.8054Z" fill="#FAFAFA"/>
</svg>
