<svg width="18" height="18" viewBox="0 0 18 18" fill="none" xmlns="http://www.w3.org/2000/svg">
<path d="M18 13.4999C18 13.8945 17.889 14.2603 17.7112 14.5822L12.0279 8.22336L17.6496 3.30486C17.8683 3.65191 18 4.05957 18 4.5001V13.4999ZM9.00002 9.37794L16.8225 2.5335C16.5015 2.35777 16.14 2.25 15.7501 2.25H2.24999C1.85957 2.25 1.49799 2.35777 1.17828 2.5335L9.00002 9.37794ZM11.1809 8.96386L9.37018 10.5492C9.26426 10.6414 9.13238 10.6875 9.00002 10.6875C8.86758 10.6875 8.7357 10.6414 8.62979 10.5492L6.8187 8.96379L1.06347 15.4039C1.40843 15.6203 1.81272 15.75 2.24995 15.75H15.7501C16.1872 15.75 16.5917 15.6203 16.9365 15.4039L11.1809 8.96386ZM0.350495 3.30482C0.131844 3.65187 0 4.05953 0 4.5001V13.5C0 13.8946 0.110476 14.2604 0.288951 14.5822L5.97162 8.22229L0.350495 3.30482Z" fill="#FAFAFA"/>
</svg>
