<svg width="130" height="131" viewBox="0 0 130 131" fill="none" xmlns="http://www.w3.org/2000/svg">
<path d="M47.6667 0.8125C38.0981 0.823333 30.3442 8.57729 30.3333 18.1458V96.1458H2.16667C0.970125 96.1458 0 97.116 0 98.3125V113.479C0.0108333 123.048 7.76479 130.802 17.3333 130.812H101.833V130.678C110.494 129.575 116.988 122.21 117 113.479V18.1458C117.008 10.9696 122.824 5.15423 130 5.14583V0.8125H47.6667ZM17.3333 126.479C10.1571 126.471 4.34173 120.655 4.33333 113.479V100.479H82.3333V113.479C82.3314 118.457 84.4743 123.194 88.2137 126.479H17.3333ZM112.667 18.1458V113.479C112.667 120.659 106.846 126.479 99.6667 126.479C92.4869 126.479 86.6667 120.659 86.6667 113.479V98.3125C86.6667 97.116 85.6965 96.1458 84.5 96.1458H34.6667V18.1458C34.6751 10.9696 40.4904 5.15423 47.6667 5.14583H118.573C114.822 8.42508 112.669 13.1636 112.667 18.1458Z" fill="#F8F8F8"/>
<path d="M95.3333 8.66666H52V13H95.3333V8.66666Z" fill="#F8F8F8"/>
<path d="M108.333 17.3333H39V21.6666H108.333V17.3333Z" fill="#F8F8F8"/>
<path d="M64.9999 30.3333H43.3333V34.6666H64.9999V30.3333Z" fill="#F8F8F8"/>
<path d="M60.6666 39H43.3333V43.3333H60.6666V39Z" fill="#F8F8F8"/>
<path d="M69.3333 47.6667H43.3333V52H69.3333V47.6667Z" fill="#F8F8F8"/>
<path d="M56.3333 56.3333H43.3333V60.6666H56.3333V56.3333Z" fill="#F8F8F8"/>
<path d="M64.9999 65H43.3333V69.3333H64.9999V65Z" fill="#F8F8F8"/>
<path d="M104 30.3333H95.3333V34.6666H104V30.3333Z" fill="#F8F8F8"/>
<path d="M104 39H95.3333V43.3333H104V39Z" fill="#F8F8F8"/>
<path d="M104 47.6667H95.3333V52H104V47.6667Z" fill="#F8F8F8"/>
<path d="M104 56.3333H95.3333V60.6666H104V56.3333Z" fill="#F8F8F8"/>
<path d="M104 65H95.3333V69.3333H104V65Z" fill="#F8F8F8"/>
<path d="M108.333 95.3333V93.1666C108.333 89.5768 105.423 86.6666 101.833 86.6666V82.3333H97.5V86.6666C93.9101 86.6666 91 89.5768 91 93.1666V97.5C91 101.09 93.9101 104 97.5 104H101.833C103.03 104 104 104.97 104 106.167V110.5C104 111.697 103.03 112.667 101.833 112.667H97.5C96.3035 112.667 95.3333 111.697 95.3333 110.5V108.333H91V110.5C91 114.09 93.9101 117 97.5 117V121.333H101.833V117C105.423 117 108.333 114.09 108.333 110.5V106.167C108.333 102.577 105.423 99.6666 101.833 99.6666H97.5C96.3035 99.6666 95.3333 98.6965 95.3333 97.5V93.1666C95.3333 91.9701 96.3035 91 97.5 91H101.833C103.03 91 104 91.9701 104 93.1666V95.3333H108.333Z" fill="#F8F8F8"/>
<path d="M77.9999 86.6667H43.3333V91H77.9999V86.6667Z" fill="#F8F8F8"/>
<path d="M77.9999 78H43.3333V82.3333H77.9999V78Z" fill="#F8F8F8"/>
</svg>
