<svg width="1207" height="569" viewBox="0 0 1207 569" fill="none" xmlns="http://www.w3.org/2000/svg">
<path d="M1206.49 299.5C1206.49 324.062 1183.73 388.815 1176.71 450C1171.24 497.658 1187.04 536.33 1170.5 552.5C1130.88 591.228 1042.63 545.394 967.307 544.5C857.98 543.202 752.305 566 607.576 566C553.361 566 487.889 553.238 430.832 552.5C356.651 551.54 226.256 569.074 171.48 552.5C131.028 540.26 61.2676 550.588 37.0014 531.5C0.558704 502.833 33.4826 423.748 31.238 380.5C28.8093 333.702 0.5 273.372 0.5 234.5C0.5 208.284 8.95244 180.377 8.42466 140.75C7.9872 107.905 -3.9797 62.0798 16.3493 47.0002C49.2691 22.581 97.0525 31.6035 156.592 24.5002C217.627 17.2185 269.203 12.2794 345.823 8.00025C393.021 5.36421 433.56 18.9638 488.466 17.5002C524.534 16.5389 575.812 0 607.576 0C686.177 0 771.352 21 858.763 47C967.307 60 1108.07 23.8673 1163.26 47C1203.27 63.7661 1192.7 107.898 1198.32 140C1207.18 190.573 1206.49 251.742 1206.49 299.5Z" fill="#F8F8F8"/>
</svg>
