<svg width="1536" height="701" viewBox="0 0 1536 701" fill="none" xmlns="http://www.w3.org/2000/svg">
<path d="M1478.5 375.61C1478.5 402.408 1527.78 462.658 1521 483.11C1499.52 547.869 1508.01 597.085 1410.5 629.61C1328.93 656.819 1212.07 694.455 1084 700.11C1027.88 702.588 962.637 689.11 898.5 689.11C751.767 689.11 684 689.11 523.5 689.11C468 676.61 360.5 679.61 360.5 679.61C276.5 682.61 220.5 659.61 185.5 646.11C154.5 629.61 120.699 598.027 94 574.61C30.7987 519.181 0 492.933 0 425.11C0 370.527 41.7884 310.97 55.5 224.11C65.3318 161.828 35.2662 66.0739 83.0001 38.1102C229.371 -47.6377 550.531 38.1102 798 38.1102C1020.26 38.1102 1347.31 -32.992 1492 38.1102C1569.44 76.1658 1525.83 141.439 1492 210.11C1463.71 267.546 1478.5 327.358 1478.5 375.61Z" fill="black"/>
</svg>
