<svg width="1246" height="937" viewBox="0 0 1246 937" fill="none" xmlns="http://www.w3.org/2000/svg">
<path d="M1245.5 522.821C1245.5 560.994 1221.69 661.63 1214.34 756.719C1208.62 830.786 1231.65 878.455 1214.34 903.586C1172.88 963.775 1074.03 904.976 995.211 903.586C880.806 901.568 770.223 937 618.772 937C562.039 937 493.526 917.166 433.819 916.019C356.193 914.527 219.741 941.777 162.422 916.019C120.091 896.997 47.09 913.048 21.6967 883.382C-16.4386 838.83 18.0145 715.921 15.6657 648.707C13.1241 575.977 0 540.912 0 480.5C0 439.757 15.9477 362.585 15.3954 301C14.9377 249.955 52.7268 30.9359 74 7.5001C108.449 -30.4508 84.5369 106.472 146.841 95.4325C210.712 84.1156 264.683 76.4396 344.861 69.7892C394.252 65.6924 436.674 86.8281 494.13 84.5535C531.873 83.0594 585.532 57.3556 618.772 57.3556C701.024 57.3556 790.155 89.9926 881.626 130.4C995.211 150.604 1101.42 21.4042 1159.18 57.3557C1201.04 83.4125 1194.38 226.21 1200.27 276.101C1209.53 354.699 1245.5 448.598 1245.5 522.821Z" fill="#333333"/>
</svg>
