<svg width="32" height="32" viewBox="0 0 32 32" fill="none" xmlns="http://www.w3.org/2000/svg">
<path d="M18.7496 16.9415L22.115 17.1651C22.3223 16.7943 22.518 16.4079 22.6904 16.0038C22.8629 15.6016 23.0043 15.1936 23.1302 14.7836L20.6638 12.4589C20.7472 11.7939 20.7587 11.1308 20.6987 10.4776L23.2271 8.2314C23.0023 7.39375 22.6846 6.58548 22.2816 5.82042L18.9142 5.94399C18.5171 5.42415 18.0598 4.94937 17.5483 4.52564L17.7672 1.11812C17.401 0.906227 17.0174 0.710069 16.6202 0.535514C16.223 0.362873 15.82 0.217699 15.4151 0.0921534L13.1211 2.59338C12.4643 2.509 11.8094 2.49728 11.1642 2.56196L8.94002 0C8.11271 0.22955 7.31443 0.551254 6.55882 0.959309L6.68086 4.36294C6.16751 4.76507 5.69859 5.22799 5.28009 5.74592L1.91467 5.52427C1.70539 5.89702 1.51166 6.28149 1.33926 6.6856C1.16875 7.08773 1.02537 7.49578 0.901379 7.90581L3.37171 10.2304C3.28837 10.8955 3.27679 11.5586 3.34068 12.2118L0.810303 14.458C1.03702 15.2936 1.35475 16.1038 1.75776 16.8709L5.11934 16.7453C5.5165 17.2652 5.97572 17.7399 6.48719 18.1637L6.26632 21.5712C6.63447 21.7811 7.0142 21.9792 7.41331 22.1538C7.81047 22.3284 8.21348 22.4716 8.61845 22.5991L10.9144 20.1018C11.5712 20.1862 12.2261 20.198 12.8712 20.1333L15.0897 22.6973C15.917 22.4697 16.7152 22.148 17.4709 21.7399L17.3488 18.3304C17.8622 17.9244 18.3311 17.4594 18.7496 16.9415ZM9.71307 16.7493C6.76425 15.4624 5.40604 11.9999 6.67702 9.01412C7.948 6.03034 11.3677 4.65322 14.3165 5.9401C17.2635 7.22697 18.6217 10.6894 17.3526 13.6752C16.0817 16.661 12.6619 18.0342 9.71307 16.7493Z" fill="#333333"/>
<path d="M12.0149 14.2876C13.62 14.2876 14.9211 12.9701 14.9211 11.3448C14.9211 9.71952 13.62 8.40198 12.0149 8.40198C10.4098 8.40198 9.10864 9.71952 9.10864 11.3448C9.10864 12.9701 10.4098 14.2876 12.0149 14.2876Z" fill="#333333"/>
<path d="M31.7696 25.2767L31.8102 24.5215L31.7696 23.7643L29.9154 23.0953L29.1133 22.8089L29.4775 22.0281L30.3203 20.2351C30.0103 19.8428 29.6538 19.4798 29.2644 19.162L27.4896 20.0193L26.7224 20.3881L26.4395 19.5759L25.7808 17.6985L25.029 17.6554L24.2792 17.6966L23.6204 19.574L23.3376 20.3861L22.5665 20.0173L20.7956 19.164C20.4062 19.4779 20.0497 19.8408 19.7358 20.2331L20.5805 22.0301L20.9467 22.8089L20.1446 23.0973L18.2904 23.7643L18.2478 24.5215L18.2885 25.2768L20.1427 25.9438L20.9448 26.2322L20.5805 27.011L19.7378 28.808C20.0477 29.2004 20.4042 29.5594 20.7937 29.8771L22.5684 29.0238L23.3376 28.655L23.6224 29.4671L24.2812 31.3446L25.0291 31.3877L25.7789 31.3465L26.4376 29.4691L26.7205 28.6569L27.4916 29.0258L29.2624 29.8791C29.6519 29.5652 30.0084 29.2043 30.3222 28.81L29.4756 27.013L29.1113 26.2361L29.9134 25.9497L31.7696 25.2767ZM25.0291 25.9928C24.2269 25.9928 23.5759 25.3337 23.5759 24.5215C23.5759 23.7093 24.2269 23.0502 25.0291 23.0502C25.8312 23.0502 26.4822 23.7093 26.4822 24.5215C26.4822 25.3337 25.8312 25.9928 25.0291 25.9928Z" fill="#333333"/>
</svg>
