<svg width="130" height="130" viewBox="0 0 130 130" fill="none" xmlns="http://www.w3.org/2000/svg">
<path d="M117.305 11.1719H105.202V7.61719C105.202 3.41707 101.785 0 97.5845 0C93.3844 0 89.9674 3.41707 89.9674 7.61719V11.1719H47.3111V7.61719C47.3111 3.41707 43.894 0 39.6939 0C35.4938 0 32.0767 3.41707 32.0767 7.61719V11.2658C31.8609 11.2062 31.6347 11.1719 31.3998 11.1719H21.2832C14.283 11.1719 8.58787 16.867 8.58787 23.8672V67.1158C8.58787 68.5181 9.72486 69.6549 11.1269 69.6549C12.529 69.6549 13.666 68.5181 13.666 67.1158V37.3242H105.202C106.604 37.3242 107.741 36.1875 107.741 34.7852C107.741 33.3828 106.604 32.2461 105.202 32.2461H13.666V23.8672C13.666 19.6671 17.0831 16.25 21.2832 16.25H31.3998C31.6347 16.25 31.8609 16.2155 32.0767 16.1561V19.4238C32.0767 23.6239 35.4938 27.041 39.6939 27.041C43.894 27.041 47.3111 23.6239 47.3111 19.4238V16.25H89.9674V19.4238C89.9674 23.6239 93.3844 27.041 97.5845 27.041C101.785 27.041 105.202 23.6239 105.202 19.4238V16.25H117.305C121.505 16.25 124.922 19.6671 124.922 23.8672V120.35C124.922 122.871 122.871 124.922 120.35 124.922C117.829 124.922 115.778 122.871 115.778 120.35V113.782C115.778 112.379 114.641 111.243 113.239 111.243H83.7045C82.3024 111.243 81.1655 112.379 81.1655 113.782C81.1655 115.184 82.3024 116.321 83.7045 116.321H110.7V120.35C110.7 122.003 111.119 123.56 111.854 124.922H9.64844C7.12842 124.922 5.07812 122.872 5.07812 120.352V116.321H61.9087C63.3108 116.321 64.4478 115.184 64.4478 113.782C64.4478 112.379 63.3108 111.243 61.9087 111.243H36.5394C40.9762 107.422 43.7935 101.77 43.7935 95.4688C43.7935 83.9884 34.4536 74.6484 22.9732 74.6484C11.4928 74.6484 2.15287 83.9884 2.15287 95.4688C2.15287 101.77 4.97021 107.422 9.40697 111.243H2.53906C1.13699 111.243 0 112.379 0 113.782V120.352C0 125.672 4.32834 130 9.64844 130H120.35C125.671 130 130 125.671 130 120.35V23.8672C130 16.867 124.305 11.1719 117.305 11.1719ZM42.233 19.4238C42.233 20.8239 41.094 21.9629 39.6939 21.9629C38.2939 21.9629 37.1549 20.8239 37.1549 19.4238V7.61719C37.1549 6.21715 38.2939 5.07812 39.6939 5.07812C41.094 5.07812 42.233 6.21715 42.233 7.61719V19.4238ZM100.124 19.4238C100.124 20.8239 98.9846 21.9629 97.5845 21.9629C96.1845 21.9629 95.0455 20.8239 95.0455 19.4238V7.61719C95.0455 6.21715 96.1845 5.07812 97.5845 5.07812C98.9846 5.07812 100.124 6.21715 100.124 7.61719V19.4238ZM7.231 95.4688C7.231 86.7885 14.2929 79.7266 22.9732 79.7266C31.6535 79.7266 38.7154 86.7885 38.7154 95.4688C38.7154 104.149 31.6535 111.211 22.9732 111.211C14.2929 111.211 7.231 104.149 7.231 95.4688Z" fill="#F8F8F8"/>
</svg>
