<svg width="1189" height="561" viewBox="0 0 1189 561" fill="none" xmlns="http://www.w3.org/2000/svg">
<path d="M1187 365C1187 402.895 1190.23 509.863 1166.5 538.073C1139.91 569.682 1086.95 546.032 1029.5 558.5C981.509 568.915 885.808 538.668 830 547C750.257 558.905 689.587 558.5 582 558.5C523.412 558.5 467.753 538.727 419 533.5C369.771 528.222 252.623 556.242 213.5 547C194.798 542.582 163.139 534.79 131.5 538.073C90.6757 542.307 49.8838 557.751 36.9999 547C4.56078 519.93 -4.86403 470.286 8.99992 419.5C20.9325 375.789 20.9999 330.751 20.9999 293.5C20.9999 220.966 -33.9913 87.5179 36.9999 35.5C57.4328 20.5281 95.874 20.1476 131.5 13C212.5 4.50005 229.375 27.05 267.5 24C330.5 18.9602 341.054 8.56799 374 4.50005C397.159 1.64051 449.451 9.08522 471.5 4.50005C517.513 -5.06874 566.383 7.74796 611 7.50001C616.624 7.46875 712.094 1.50002 718.5 1.50002C758.686 1.50002 794.513 14.8572 830 18C865.47 21.1414 908.634 12.3085 939.5 18C979.926 25.4542 1017.5 23.5 1072.5 18C1108 21.6544 1154.5 12.5124 1174.5 28.5C1206.33 53.9489 1157.28 148.3 1166.5 188C1172.07 211.986 1183.58 241.062 1187 268.5C1191.44 304.113 1187 337.996 1187 365Z" fill="#F8F8F8"/>
</svg>
