<svg width="1216" height="728" viewBox="0 0 1216 728" fill="none" xmlns="http://www.w3.org/2000/svg">
<path d="M1213.49 383.851C1213.49 415.33 1190.73 498.321 1183.71 576.738C1178.24 637.818 1194.04 687.382 1177.5 708.106C1137.88 757.742 1049.63 698.999 974.307 697.853C864.98 696.189 759.305 725.408 614.576 725.408C560.361 725.408 494.889 709.052 437.832 708.106C363.651 706.876 233.256 729.347 178.48 708.106C138.028 692.419 68.2677 705.656 44.0015 681.192C7.55878 644.451 40.4827 543.093 38.2381 487.664C35.8093 427.686 7.50007 350.364 7.50007 300.545C7.50007 266.946 15.9525 231.178 15.4247 180.391C14.9873 138.296 -12.8289 62.8266 7.50006 43.5C40.4199 12.2034 104.053 40.5043 163.592 31.4005C224.627 22.0679 276.203 15.7378 352.823 10.2534C400.021 6.87499 440.56 24.3048 495.466 22.429C531.534 21.1969 582.812 0 614.576 0C693.177 0 778.352 26.9144 865.763 60.2371C974.307 76.8984 1115.07 30.5893 1170.26 60.2371C1210.27 81.7251 1204.38 39.8565 1210 81C1218.86 145.817 1213.49 322.642 1213.49 383.851Z" fill="#1B5937"/>
</svg>
