<svg width="18" height="18" viewBox="0 0 18 18" fill="none" xmlns="http://www.w3.org/2000/svg">
<g clip-path="url(#clip0)">
<path d="M9.14984 0C4.26974 0 0.299844 3.9699 0.299844 8.85C0.299844 10.3938 0.703644 11.9106 1.46864 13.245L0.0151444 17.6052C-0.0196556 17.7099 0.00554442 17.8248 0.0808444 17.9052C0.138444 17.9667 0.218244 18 0.299844 18C0.325344 18 0.350844 17.9967 0.376044 17.9901L5.13614 16.7376C6.37274 17.3676 7.75784 17.7 9.14984 17.7C14.0299 17.7 17.9998 13.7301 17.9998 8.85C17.9998 3.9699 14.0299 0 9.14984 0ZM14.6722 12.8685L14.1448 13.3962C13.4788 14.0622 12.7357 14.4 11.9368 14.4C10.8598 14.4 9.69854 13.785 8.48594 12.5721L5.42774 9.5142C4.47134 8.5578 3.88364 7.6287 3.68084 6.7524C3.43484 5.6883 3.74534 4.7136 4.60394 3.8553L5.13164 3.3276C5.47094 2.9883 6.01964 2.9049 6.44474 3.1299C7.24334 3.5526 8.07074 4.9374 8.16254 5.094C8.32814 5.3841 8.37884 5.6841 8.30744 5.9412C8.25284 6.1377 8.12984 6.2979 7.95104 6.4068C7.70864 6.6096 7.42454 6.8622 7.37444 6.9264C7.06964 7.3761 7.10444 7.7214 7.49714 8.1144L9.88574 10.503C10.2817 10.8993 10.621 10.932 11.0779 10.6224C11.1382 10.5753 11.3905 10.2912 11.5933 10.0488C11.7448 9.7983 11.9929 9.6612 12.2947 9.6612C12.4924 9.6612 12.7027 9.7212 12.9028 9.8352C13.0624 9.9291 14.4475 10.7565 14.8699 11.5548C15.1009 11.9916 15.0217 12.519 14.6722 12.8685Z" fill="#FAFAFA"/>
</g>
<defs>
<clipPath id="clip0">
<rect width="18" height="18" fill="white"/>
</clipPath>
</defs>
</svg>
